<svg xmlns="http://www.w3.org/2000/svg" version="1.1" xmlns:xlink="http://www.w3.org/1999/xlink" xmlns:svgjs="http://svgjs.dev/svgjs" width="1000" height="63" viewBox="0 0 1000 63"><g transform="matrix(1,0,0,1,-0.6060606060606233,-0.2611466481349538)"><svg viewBox="0 0 396 25" data-background-color="#6936f5" preserveAspectRatio="xMidYMid meet" height="63" width="1000" xmlns="http://www.w3.org/2000/svg" xmlns:xlink="http://www.w3.org/1999/xlink"><g id="tight-bounds" transform="matrix(1,0,0,1,0.2400000000000091,0.10362962227577555)"><svg viewBox="0 0 395.52 24.79274075544846" height="24.79274075544846" width="395.52"><g><svg viewBox="0 0 426.84703034178966 26.75644155920569" height="24.79274075544846" width="395.52"><g transform="matrix(1,0,0,1,0,3.6978873645501356)"><svg viewBox="0 0 395.52 19.36066683010542" height="19.36066683010542" width="395.52"><g id="textblocktransform"><svg viewBox="0 0 395.52 19.36066683010542" height="19.36066683010542" width="395.52" id="textblock"><g><svg viewBox="0 0 395.52 19.36066683010542" height="19.36066683010542" width="395.52"><g transform="matrix(1,0,0,1,0,0)"><svg width="395.52" viewBox="3.5 -29.450000762939453 611.8099975585938 29.950000762939453" height="19.36066683010542" data-palette-color="#ffffff"><path d="M26.55 0L13.65 0Q8.3 0 5.9-2.35 3.5-4.7 3.5-9.95L3.5-9.95 3.5-19.1Q3.5-24.5 6.15-26.98 8.8-29.45 13.65-29.45L13.65-29.45 28.25-29.45Q31.7-29.45 33.52-29.08 35.35-28.7 35.35-28.3L35.35-28.3 33.8-22.05Q32.55-22.2 28.93-22.38 25.3-22.55 19.8-22.55L19.8-22.55 17.25-22.55Q14.9-22.55 14.08-21.68 13.25-20.8 13.25-19L13.25-19 13.25-10.45Q13.25-8.75 13.98-7.83 14.7-6.9 17.25-6.9L17.25-6.9 19.3-6.9Q26.45-6.9 30.2-7.08 33.95-7.25 34.7-7.45L34.7-7.45 37.75-2.05Q37.75-1.8 36.73-1.3 35.7-0.8 33.27-0.4 30.85 0 26.55 0L26.55 0ZM67 0L52.4 0Q47.1 0 44.67-2.38 42.25-4.75 42.25-9.95L42.25-9.95 42.25-19.5Q42.25-24.6 44.65-27 47.05-29.4 52.4-29.4L52.4-29.4 67-29.4Q72.25-29.4 74.67-27 77.1-24.6 77.1-19.5L77.1-19.5 77.1-9.95Q77.1-4.75 74.65-2.38 72.2 0 67 0L67 0ZM55.85-6.8L55.85-6.8 63.6-6.8Q67.5-6.8 67.5-10.35L67.5-10.35 67.5-19.1Q67.5-22.6 63.6-22.6L63.6-22.6 55.85-22.6Q53.85-22.6 52.85-21.8 51.85-21 51.85-19.1L51.85-19.1 51.85-10.35Q51.85-8.5 52.85-7.65 53.85-6.8 55.85-6.8ZM107.55 0.5L94 0.5Q89 0.5 86.42-1.85 83.84-4.2 83.84-9.45L83.84-9.45 83.84-29.4 93.59-29.4 93.59-10.35Q93.59-8 94.75-7.2 95.89-6.4 97.59-6.4L97.59-6.4 104.05-6.4Q105.64-6.4 106.84-7.23 108.05-8.05 108.05-10.35L108.05-10.35 108.05-29.4 117.65-29.4 117.65-9.45Q117.65-4.2 115.12-1.85 112.59 0.5 107.55 0.5L107.55 0.5ZM147.44 0L134.54 0Q129.19 0 126.79-2.35 124.39-4.7 124.39-9.95L124.39-9.95 124.39-19.1Q124.39-24.5 127.04-26.98 129.69-29.45 134.54-29.45L134.54-29.45 149.14-29.45Q152.59-29.45 154.42-29.08 156.24-28.7 156.24-28.3L156.24-28.3 154.69-22.05Q153.44-22.2 149.82-22.38 146.19-22.55 140.69-22.55L140.69-22.55 138.14-22.55Q135.79-22.55 134.97-21.68 134.14-20.8 134.14-19L134.14-19 134.14-10.45Q134.14-8.75 134.87-7.83 135.59-6.9 138.14-6.9L138.14-6.9 140.19-6.9Q147.34-6.9 151.09-7.08 154.84-7.25 155.59-7.45L155.59-7.45 158.64-2.05Q158.64-1.8 157.62-1.3 156.59-0.8 154.17-0.4 151.74 0 147.44 0L147.44 0ZM173.29 0L163.64 0 163.64-29.4 173.29-29.4 173.29-18.2 188.84-18.2 188.84-29.4 198.44-29.4 198.44 0 188.84 0 188.84-11.4 173.29-11.4 173.29 0ZM229.64 0L206.94 0 206.94-25.4 206.44-29.4 229.64-29.4Q235.69-29.4 238.71-27 241.74-24.6 241.74-19.5L241.74-19.5 241.74-9.95Q241.74-4.75 238.74-2.38 235.74 0 229.64 0L229.64 0ZM216.69-22.6L216.69-6.9 228.14-6.9Q231.99-6.9 232.04-10.45L232.04-10.45 232.04-19.1Q232.04-20.55 231.19-21.58 230.34-22.6 228.14-22.6L228.14-22.6 216.69-22.6ZM273.54 0L248.74 0 248.74-29.45 271.54-29.45Q276.24-29.45 278.39-27.58 280.54-25.7 280.54-23.05L280.54-23.05 280.54-21.55Q280.54-19.5 279.66-18.18 278.79-16.85 277.79-16.3L277.79-16.3Q279.99-15.6 281.29-13.88 282.59-12.15 282.59-9.35L282.59-9.35 282.59-8.45Q282.59-6.95 282.24-5.45 281.89-3.95 280.91-2.73 279.94-1.5 278.16-0.75 276.39 0 273.54 0L273.54 0ZM258.49-22.6L258.49-18.1 268.49-18.1Q269.79-18.1 270.29-18.65 270.79-19.2 270.79-20.15L270.79-20.15 270.79-20.65Q270.79-21.7 270.29-22.15 269.79-22.6 268.04-22.6L268.04-22.6 258.49-22.6ZM258.49-11.75L258.49-6.85 270.54-6.85Q271.84-6.85 272.34-7.33 272.84-7.8 272.84-8.85L272.84-8.85 272.84-9.75Q272.84-10.7 272.19-11.23 271.54-11.75 269.94-11.75L269.94-11.75 258.49-11.75ZM328.88 0L300.58 0 300.58-29.4 332.68-29.4 332.68-22.6 310.33-22.6 310.33-18.45 326.88-18.45 326.88-11.5 310.33-11.5 310.33-6.85 331.88-6.85 334.88-0.55Q334.88-0.35 333.53-0.18 332.18 0 328.88 0L328.88 0ZM348.43 0L335.88 0 337.78-3 348.38-14.7 335.88-29.4 348.43-29.4 354.58-20.35 355.13-20.35 361.28-29.4 373.83-29.4 371.88-26.45 361.33-14.7 373.83 0 361.28 0 355.13-9.1 354.58-9.1 348.43 0ZM388.08 0L378.33 0 378.33-25.4 377.83-29.45 400.98-29.45Q404.33-29.45 406.35-28.73 408.38-28 409.4-26.78 410.43-25.55 410.75-23.93 411.08-22.3 411.08-20.5L411.08-20.5 411.08-16.55Q411.08-14.15 410.3-12.13 409.53-10.1 407.45-8.88 405.38-7.65 401.48-7.65L401.48-7.65 398.03-7.65Q394.88-7.65 392.15-7.8 389.43-7.95 388.08-8.05L388.08-8.05 388.08 0ZM388.08-22.55L388.08-14.45 398.43-14.45Q400.08-14.45 400.73-15.1 401.38-15.75 401.38-17.2L401.38-17.2 401.38-19.75Q401.38-21.2 400.78-21.88 400.18-22.55 398.48-22.55L398.48-22.55 388.08-22.55ZM442.87 0L418.07 0 418.57-4 418.57-29.4 428.17-29.4 428.17-6.85 445.87-6.85 448.87-0.55Q448.87-0.35 447.52-0.18 446.17 0 442.87 0L442.87 0ZM477.12 0L462.52 0Q457.22 0 454.8-2.38 452.37-4.75 452.37-9.95L452.37-9.95 452.37-19.5Q452.37-24.6 454.77-27 457.17-29.4 462.52-29.4L462.52-29.4 477.12-29.4Q482.37-29.4 484.8-27 487.22-24.6 487.22-19.5L487.22-19.5 487.22-9.95Q487.22-4.75 484.77-2.38 482.32 0 477.12 0L477.12 0ZM465.97-6.8L465.97-6.8 473.72-6.8Q477.62-6.8 477.62-10.35L477.62-10.35 477.62-19.1Q477.62-22.6 473.72-22.6L473.72-22.6 465.97-22.6Q463.97-22.6 462.97-21.8 461.97-21 461.97-19.1L461.97-19.1 461.97-10.35Q461.97-8.5 462.97-7.65 463.97-6.8 465.97-6.8ZM527.17 0.5L527.17 0.5Q525.17 0.5 522.72-0.13 520.27-0.75 517.87-3.2L517.87-3.2 515.77-5.3Q514.27-6.8 512.89-7.75 511.52-8.7 509.77-9.18 508.02-9.65 505.37-9.65L505.37-9.65 504.97-9.65 504.97 0 495.22 0 495.22-25.4 494.72-29.45 517.87-29.45Q521.07-29.45 523.04-28.68 525.02-27.9 526.09-26.63 527.17-25.35 527.57-23.75 527.97-22.15 527.97-20.5L527.97-20.5 527.97-19.55Q527.97-16.55 526.44-14.18 524.92-11.8 521.62-10.8L521.62-10.8Q522.87-10.05 523.99-9.28 525.12-8.5 526.57-7.65L526.57-7.65Q528.22-6.7 529.64-6.28 531.07-5.85 532.02-5.75 532.97-5.65 533.12-5.65L533.12-5.65 531.62 0Q531.02 0.15 529.79 0.33 528.57 0.5 527.17 0.5ZM510.77-16.3L510.77-16.3Q512.02-16.3 513.19-16.35 514.37-16.4 515.32-16.5L515.32-16.5Q517.02-16.7 517.64-17.57 518.27-18.45 518.27-19.7L518.27-19.7 518.27-20.25Q518.27-21.35 517.64-21.95 517.02-22.55 515.37-22.55L515.37-22.55 504.97-22.55 504.97-16.5Q506.22-16.45 507.72-16.38 509.22-16.3 510.77-16.3ZM565.91 0L537.62 0 537.62-29.4 569.72-29.4 569.72-22.6 547.37-22.6 547.37-18.45 563.91-18.45 563.91-11.5 547.37-11.5 547.37-6.85 568.91-6.85 571.91-0.55Q571.91-0.35 570.57-0.18 569.22 0 565.91 0L565.91 0ZM609.36 0.5L609.36 0.5Q607.36 0.5 604.91-0.13 602.46-0.75 600.06-3.2L600.06-3.2 597.96-5.3Q596.46-6.8 595.09-7.75 593.71-8.7 591.96-9.18 590.21-9.65 587.56-9.65L587.56-9.65 587.16-9.65 587.16 0 577.41 0 577.41-25.4 576.91-29.45 600.06-29.45Q603.26-29.45 605.24-28.68 607.21-27.9 608.29-26.63 609.36-25.35 609.76-23.75 610.16-22.15 610.16-20.5L610.16-20.5 610.16-19.55Q610.16-16.55 608.64-14.18 607.11-11.8 603.81-10.8L603.81-10.8Q605.06-10.05 606.19-9.28 607.31-8.5 608.76-7.65L608.76-7.65Q610.41-6.7 611.84-6.28 613.26-5.85 614.21-5.75 615.16-5.65 615.31-5.65L615.31-5.65 613.81 0Q613.21 0.15 611.99 0.33 610.76 0.5 609.36 0.5ZM592.96-16.3L592.96-16.3Q594.21-16.3 595.39-16.35 596.56-16.4 597.51-16.5L597.51-16.5Q599.21-16.7 599.84-17.57 600.46-18.45 600.46-19.7L600.46-19.7 600.46-20.25Q600.46-21.35 599.84-21.95 599.21-22.55 597.56-22.55L597.56-22.55 587.16-22.55 587.16-16.5Q588.41-16.45 589.91-16.38 591.41-16.3 592.96-16.3Z" opacity="1" transform="matrix(1,0,0,1,0,0)" fill="#ffffff" class="undefined-text-0" data-fill-palette-color="primary" id="text-0"></path></svg></g></svg></g></svg></g></svg></g><g transform="matrix(1,0,0,1,400.09058878258395,0)"><svg viewBox="0 0 26.75644155920569 26.75644155920569" height="26.75644155920569" width="26.75644155920569"><g><svg xmlns="http://www.w3.org/2000/svg" xmlns:xlink="http://www.w3.org/1999/xlink" version="1.1" x="0" y="0" viewBox="0 0 100 100" enable-background="new 0 0 100 100" xml:space="preserve" height="26.75644155920569" width="26.75644155920569" class="icon-icon-0" data-fill-palette-color="accent" id="icon-0"><path d="M50 0C22.386 0 0 3.214 0 7.179v21.886c0 3.964 22.386 7.179 50 7.179 27.612 0 50-3.215 50-7.179V7.179C100 3.214 77.612 0 50 0z" fill="#ffffff" data-fill-palette-color="accent"></path><g fill="#ffffff" data-fill-palette-color="accent"><path d="M50 46.24c-27.614 0-50-3.215-50-7.179v21.885c0 3.964 22.386 7.18 50 7.18 27.612 0 50-3.216 50-7.18V39.061C100 43.025 77.612 46.24 50 46.24z" fill="#ffffff" data-fill-palette-color="accent"></path></g><g fill="#ffffff" data-fill-palette-color="accent"><path d="M50 78.116c-27.614 0-50-3.216-50-7.181v21.886C0 96.787 22.386 100 50 100c27.612 0 50-3.213 50-7.179V70.936C100 74.9 77.612 78.116 50 78.116z" fill="#ffffff" data-fill-palette-color="accent"></path></g></svg></g></svg></g></svg></g><defs></defs></svg><rect width="395.52" height="24.79274075544846" fill="none" stroke="none" visibility="hidden"></rect></g></svg></g></svg>