<svg width="743" height="122" viewBox="0 0 743 122" fill="none" xmlns="http://www.w3.org/2000/svg">
<g clip-path="url(#clip0_101_66)">
<path d="M872 -436H-128V564H872V-436Z" fill="#6936F5"/>
<g clip-path="url(#clip1_101_66)">
<g clip-path="url(#clip2_101_66)">
<g clip-path="url(#clip3_101_66)">
<g clip-path="url(#clip4_101_66)">
<g clip-path="url(#clip5_101_66)">
<g clip-path="url(#clip6_101_66)">
<g clip-path="url(#clip7_101_66)">
<path d="M47.1033 79.1117H33.4729C29.7043 79.1117 26.9747 78.2841 25.2841 76.6287C23.5935 74.9733 22.7482 72.2966 22.7482 68.5984V58.9303C22.7482 55.1265 23.6816 52.3511 25.5483 50.6042C27.415 48.8643 30.0565 47.9943 33.4729 47.9943H48.8995C51.3298 47.9943 53.1859 48.1246 54.4679 48.3853C55.757 48.653 56.4015 48.9277 56.4015 49.2094L54.7638 55.8133C53.8833 55.7076 52.168 55.5914 49.618 55.4646C47.061 55.3449 43.8454 55.285 39.9711 55.285H37.2767C35.6214 55.285 34.5049 55.5914 33.9273 56.2043C33.3426 56.8241 33.0503 57.7681 33.0503 59.036V68.0701C33.0503 69.2676 33.3074 70.1904 33.8216 70.8384C34.3288 71.4935 35.4805 71.8211 37.2767 71.8211H39.4428C44.4794 71.8211 48.3184 71.7577 50.9599 71.6309C53.6015 71.5111 55.1864 71.3808 55.7147 71.2399L58.9374 76.9457C58.9374 77.1218 58.5782 77.3859 57.8597 77.7381C57.1341 78.0904 55.9155 78.4073 54.2038 78.6891C52.4991 78.9709 50.1323 79.1117 47.1033 79.1117ZM89.8435 79.1117H74.4169C70.6835 79.1117 67.9609 78.2735 66.2492 76.597C64.5445 74.9275 63.6922 72.2613 63.6922 68.5984V58.5077C63.6922 54.9152 64.5375 52.2736 66.2281 50.583C67.9187 48.8925 70.6483 48.0472 74.4169 48.0472H89.8435C93.5417 48.0472 96.2431 48.8925 97.9478 50.583C99.6595 52.2736 100.515 54.9152 100.515 58.5077V68.5984C100.515 72.2613 99.6525 74.9275 97.9266 76.597C96.2008 78.2735 93.5065 79.1117 89.8435 79.1117ZM78.0622 71.9267H86.251C88.9982 71.9267 90.3718 70.6764 90.3718 68.1757V58.9303C90.3718 56.4649 88.9982 55.2322 86.251 55.2322H78.0622C76.6534 55.2322 75.5968 55.5139 74.8924 56.0775C74.1879 56.641 73.8357 57.592 73.8357 58.9303V68.1757C73.8357 69.4789 74.1879 70.4299 74.8924 71.0286C75.5968 71.6274 76.6534 71.9267 78.0622 71.9267ZM132.689 79.6401H118.372C114.85 79.6401 112.18 78.8124 110.363 77.157C108.546 75.5016 107.637 72.8249 107.637 69.1267V48.0472H117.939V68.1757C117.939 69.8311 118.348 70.9406 119.165 71.5041C119.968 72.0676 120.968 72.3494 122.165 72.3494H128.991C130.111 72.3494 131.094 72.0571 131.939 71.4724C132.792 70.8948 133.218 69.7959 133.218 68.1757V48.0472H143.361V69.1267C143.361 72.8249 142.47 75.5016 140.688 77.157C138.906 78.8124 136.24 79.6401 132.689 79.6401ZM174.838 79.1117H161.208C157.439 79.1117 154.709 78.2841 153.019 76.6287C151.328 74.9733 150.483 72.2966 150.483 68.5984V58.9303C150.483 55.1265 151.416 52.3511 153.283 50.6042C155.15 48.8643 157.791 47.9943 161.208 47.9943H176.634C179.064 47.9943 180.924 48.1246 182.213 48.3853C183.495 48.653 184.136 48.9277 184.136 49.2094L182.498 55.8133C181.618 55.7076 179.903 55.5914 177.353 55.4646C174.796 55.3449 171.58 55.285 167.706 55.285H165.011C163.356 55.285 162.239 55.5914 161.662 56.2043C161.077 56.8241 160.785 57.7681 160.785 59.036V68.0701C160.785 69.2676 161.042 70.1904 161.556 70.8384C162.063 71.4935 163.215 71.8211 165.011 71.8211H167.177C172.214 71.8211 176.053 71.7577 178.695 71.6309C181.336 71.5111 182.921 71.3808 183.449 71.2399L186.672 76.9457C186.672 77.1218 186.313 77.3859 185.594 77.7381C184.869 78.0904 183.654 78.4073 181.949 78.6891C180.237 78.9709 177.867 79.1117 174.838 79.1117ZM202.151 79.1117H191.955V48.0472H202.151V59.8813H218.582V48.0472H228.725V79.1117H218.582V67.0663H202.151V79.1117ZM261.692 79.1117H237.707V52.2736L237.178 48.0472H261.692C265.954 48.0472 269.148 48.8925 271.275 50.583C273.41 52.2736 274.477 54.9152 274.477 58.5077V68.5984C274.477 72.2613 273.42 74.9275 271.307 76.597C269.194 78.2735 265.989 79.1117 261.692 79.1117ZM248.009 55.2322V71.8211H260.107C262.819 71.8211 264.193 70.5707 264.228 68.0701V58.9303C264.228 57.9089 263.928 57.0355 263.33 56.3099C262.731 55.5914 261.657 55.2322 260.107 55.2322H248.009ZM308.078 79.1117H281.873V47.9943H305.964C309.275 47.9943 311.688 48.653 313.202 49.9702C314.717 51.2945 315.474 52.89 315.474 54.7567V56.3416C315.474 57.7857 315.164 58.9726 314.544 59.9024C313.931 60.8393 313.273 61.5014 312.568 61.8889C314.118 62.382 315.351 63.2343 316.266 64.4459C317.182 65.6645 317.64 67.26 317.64 69.2324V70.1833C317.64 71.2399 317.517 72.2966 317.27 73.3532C317.024 74.4098 316.555 75.3678 315.865 76.2272C315.182 77.0936 314.213 77.791 312.959 78.3193C311.712 78.8476 310.085 79.1117 308.078 79.1117ZM292.175 55.2322V59.987H302.742C303.657 59.987 304.291 59.7932 304.644 59.4058C304.996 59.0184 305.172 58.4901 305.172 57.8209V57.2926C305.172 56.5529 304.996 56.0246 304.644 55.7076C304.291 55.3907 303.499 55.2322 302.266 55.2322H292.175ZM292.175 66.6965V71.8739H304.908C305.823 71.8739 306.457 71.7049 306.81 71.3667C307.162 71.0357 307.338 70.5003 307.338 69.7607V68.8097C307.338 68.1405 307.109 67.6193 306.651 67.2459C306.193 66.8796 305.401 66.6965 304.274 66.6965H292.175ZM366.551 79.1117H336.648V48.0472H370.566V55.2322H346.95V59.6171H364.438V66.9606H346.95V71.8739H369.721L372.89 78.5306C372.89 78.6715 372.415 78.8018 371.464 78.9216C370.513 79.0484 368.875 79.1117 366.551 79.1117ZM387.208 79.1117H373.947L375.955 75.9419L387.155 63.5795L373.947 48.0472H387.208L393.706 57.6096H394.287L400.785 48.0472H414.046L411.985 51.1642L400.838 63.5795L414.046 79.1117H400.785L394.287 69.4965H393.706L387.208 79.1117ZM429.103 79.1117H418.801V52.2736L418.272 47.9943H442.733C445.093 47.9943 446.984 48.2479 448.407 48.7551C449.837 49.2693 450.911 49.9561 451.63 50.8155C452.355 51.6819 452.831 52.6857 453.056 53.8269C453.289 54.9751 453.405 56.1831 453.405 57.4511V61.6247C453.405 63.3153 453.13 64.8721 452.581 66.295C452.038 67.7249 451.034 68.8696 449.569 69.729C448.111 70.5954 446.009 71.0286 443.261 71.0286H439.616C437.397 71.0286 435.326 70.9758 433.403 70.8701C431.487 70.7645 430.054 70.6764 429.103 70.606V79.1117ZM429.103 55.285V63.8436H440.039C441.201 63.8436 442.011 63.6147 442.469 63.1568C442.927 62.6989 443.156 61.9593 443.156 60.9379V58.2435C443.156 57.2221 442.944 56.4719 442.522 55.9929C442.099 55.521 441.289 55.285 440.091 55.285H429.103ZM486.995 79.1117H460.791L461.319 74.8853V48.0472H471.462V71.8739H490.165L493.334 78.5306C493.334 78.6715 492.859 78.8018 491.908 78.9216C490.957 79.0484 489.319 79.1117 486.995 79.1117ZM523.184 79.1117H507.757C504.024 79.1117 501.305 78.2735 499.6 76.597C497.888 74.9275 497.033 72.2613 497.033 68.5984V58.5077C497.033 54.9152 497.878 52.2736 499.568 50.583C501.259 48.8925 503.989 48.0472 507.757 48.0472H523.184C526.882 48.0472 529.587 48.8925 531.299 50.583C533.003 52.2736 533.856 54.9152 533.856 58.5077V68.5984C533.856 72.2613 532.993 74.9275 531.267 76.597C529.541 78.2735 526.847 79.1117 523.184 79.1117ZM511.403 71.9267H519.591C522.339 71.9267 523.712 70.6764 523.712 68.1757V58.9303C523.712 56.4649 522.339 55.2322 519.591 55.2322H511.403C509.994 55.2322 508.937 55.5139 508.233 56.0775C507.528 56.641 507.176 57.592 507.176 58.9303V68.1757C507.176 69.4789 507.528 70.4299 508.233 71.0286C508.937 71.6274 509.994 71.9267 511.403 71.9267ZM576.068 79.6401C574.659 79.6401 573.092 79.4182 571.366 78.9744C569.64 78.5377 567.932 77.4564 566.241 75.7306L564.022 73.5117C562.966 72.4551 561.951 71.5921 560.979 70.923C560.014 70.2538 558.915 69.7501 557.683 69.412C556.45 69.0809 554.9 68.9154 553.033 68.9154H552.611V79.1117H542.309V52.2736L541.78 47.9943H566.241C568.495 47.9943 570.316 48.2655 571.704 48.8079C573.099 49.3574 574.173 50.0794 574.927 50.974C575.687 51.8756 576.209 52.89 576.49 54.0171C576.772 55.1441 576.913 56.2888 576.913 57.4511V58.4549C576.913 60.5681 576.374 62.4594 575.296 64.1289C574.226 65.8054 572.528 66.9959 570.203 67.7003C571.084 68.2286 571.919 68.7639 572.708 69.3063C573.504 69.8558 574.412 70.4299 575.434 71.0286C576.596 71.6978 577.677 72.1803 578.678 72.4762C579.685 72.7791 580.523 72.9658 581.192 73.0362C581.861 73.1066 582.249 73.1419 582.355 73.1419L580.77 79.1117C580.347 79.2174 579.702 79.3336 578.836 79.4604C577.977 79.5802 577.054 79.6401 576.068 79.6401ZM558.739 61.8889C559.62 61.8889 560.472 61.8713 561.296 61.836C562.127 61.8008 562.878 61.748 563.547 61.6775C564.744 61.5367 565.561 61.1598 565.998 60.547C566.442 59.9271 566.664 59.1769 566.664 58.2964V57.7152C566.664 56.9404 566.442 56.3416 565.998 55.919C565.561 55.4963 564.762 55.285 563.6 55.285H552.611V61.6775C553.491 61.7128 554.46 61.755 555.516 61.8043C556.573 61.8607 557.647 61.8889 558.739 61.8889ZM617.001 79.1117H587.109V48.0472H621.027V55.2322H597.411V59.6171H614.888V66.9606H597.411V71.8739H620.171L623.341 78.5306C623.341 78.6715 622.869 78.8018 621.925 78.9216C620.974 79.0484 619.333 79.1117 617.001 79.1117ZM662.911 79.6401C661.502 79.6401 659.935 79.4182 658.209 78.9744C656.483 78.5377 654.775 77.4564 653.085 75.7306L650.866 73.5117C649.809 72.4551 648.798 71.5921 647.833 70.923C646.861 70.2538 645.759 69.7501 644.526 69.412C643.293 69.0809 641.744 68.9154 639.877 68.9154H639.454V79.1117H629.152V52.2736L628.624 47.9943H653.085C655.339 47.9943 657.163 48.2655 658.558 48.8079C659.946 49.3574 661.02 50.0794 661.781 50.974C662.534 51.8756 663.052 52.89 663.334 54.0171C663.616 55.1441 663.756 56.2888 663.756 57.4511V58.4549C663.756 60.5681 663.221 62.4594 662.15 64.1289C661.073 65.8054 659.371 66.9959 657.047 67.7003C657.927 68.2286 658.766 68.7639 659.562 69.3063C660.351 69.8558 661.256 70.4299 662.277 71.0286C663.439 71.6978 664.524 72.1803 665.532 72.4762C666.532 72.7791 667.367 72.9658 668.036 73.0362C668.705 73.1066 669.092 73.1419 669.198 73.1419L667.613 79.1117C667.19 79.2174 666.549 79.3336 665.69 79.4604C664.824 79.5802 663.897 79.6401 662.911 79.6401ZM645.583 61.8889C646.463 61.8889 647.319 61.8713 648.15 61.836C648.974 61.8008 649.721 61.748 650.39 61.6775C651.588 61.5367 652.408 61.1598 652.852 60.547C653.289 59.9271 653.507 59.1769 653.507 58.2964V57.7152C653.507 56.9404 653.289 56.3416 652.852 55.919C652.408 55.4963 651.605 55.285 650.443 55.285H639.454V61.6775C640.335 61.7128 641.303 61.755 642.36 61.8043C643.417 61.8607 644.491 61.8889 645.583 61.8889Z" fill="white"/>
</g>
</g>
</g>
</g>
<g clip-path="url(#clip8_101_66)">
<g clip-path="url(#clip9_101_66)">
<path d="M698.557 41.95C686.48 41.95 676.69 43.3556 676.69 45.0897V54.6614C676.69 56.395 686.48 57.8011 698.557 57.8011C710.633 57.8011 720.424 56.395 720.424 54.6614V45.0897C720.424 43.3556 710.633 41.95 698.557 41.95Z" fill="white"/>
<path d="M698.557 62.1728C686.48 62.1728 676.69 60.7667 676.69 59.0331V68.6043C676.69 70.338 686.48 71.7445 698.557 71.7445C710.633 71.7445 720.424 70.338 720.424 68.6043V59.0331C720.424 60.7667 710.633 62.1728 698.557 62.1728Z" fill="white"/>
<path d="M698.557 76.1135C686.48 76.1135 676.69 74.707 676.69 72.973V82.5447C676.69 84.2792 686.48 85.6844 698.557 85.6844C710.633 85.6844 720.424 84.2792 720.424 82.5447V72.9734C720.424 74.707 710.633 76.1135 698.557 76.1135Z" fill="white"/>
</g>
</g>
</g>
</g>
</g>
</g>
<defs>
<clipPath id="clip0_101_66">
<rect width="1000" height="1000" fill="white" transform="translate(-128 -436)"/>
</clipPath>
<clipPath id="clip1_101_66">
<rect width="700" height="44.1" fill="white" transform="translate(21.5757 41.7672)"/>
</clipPath>
<clipPath id="clip2_101_66">
<rect width="697.697" height="43.7344" fill="white" transform="translate(22.7271 41.95)"/>
</clipPath>
<clipPath id="clip3_101_66">
<rect width="697.697" height="43.7344" fill="white" transform="translate(22.7271 41.95)"/>
</clipPath>
<clipPath id="clip4_101_66">
<rect width="646.492" height="31.6457" fill="white" transform="translate(22.7271 47.9943)"/>
</clipPath>
<clipPath id="clip5_101_66">
<rect width="646.492" height="31.6457" fill="white" transform="translate(22.7271 47.9943)"/>
</clipPath>
<clipPath id="clip6_101_66">
<rect width="646.492" height="31.6457" fill="white" transform="translate(22.7271 47.9943)"/>
</clipPath>
<clipPath id="clip7_101_66">
<rect width="646.492" height="31.6457" fill="white" transform="translate(22.7271 47.9943)"/>
</clipPath>
<clipPath id="clip8_101_66">
<rect width="43.7344" height="43.7344" fill="white" transform="translate(676.69 41.95)"/>
</clipPath>
<clipPath id="clip9_101_66">
<rect width="43.7344" height="43.7344" fill="white" transform="translate(676.69 41.95)"/>
</clipPath>
</defs>
</svg>
