<?xml version="1.0" encoding="iso-8859-1"?>
<!-- Uploaded to: SVGRepo, www.svgrepo.com, Transformed by: SVGRepo Tools -->
<svg fill="#000000" height="800px" width="800px" version="1.1" id="Layer_1" xmlns="http://www.w3.org/2000/svg" xmlns:xlink="http://www.w3.org/1999/xlink" 
	 viewBox="0 0 512 512" xml:space="preserve">
<g>
	<g>
		<path d="M392,280H52c-2.208,0-4,1.792-4,4s1.792,4,4,4h340c2.208,0,4-1.792,4-4S394.208,280,392,280z"/>
	</g>
</g>
<g>
	<g>
		<path d="M460,280h-28c-2.208,0-4,1.792-4,4s1.792,4,4,4h28c2.208,0,4-1.792,4-4S462.208,280,460,280z"/>
	</g>
</g>
<g>
	<g>
		<path d="M44,324c-2.208,0-4,1.792-4,4v8H28v-8c0-2.208-1.792-4-4-4s-4,1.792-4,4v12c0,2.208,1.792,4,4,4h20c2.208,0,4-1.792,4-4
			v-12C48,325.792,46.208,324,44,324z"/>
	</g>
</g>
<g>
	<g>
		<path d="M488,324c-2.208,0-4,1.792-4,4v8h-12v-8c0-2.208-1.792-4-4-4s-4,1.792-4,4v12c0,2.208,1.792,4,4,4h20c2.208,0,4-1.792,4-4
			v-12C492,325.792,490.208,324,488,324z"/>
	</g>
</g>
<g>
	<g>
		<path d="M36,236H20c-11.028,0-20,8.972-20,20v28c0,2.208,1.792,4,4,4s4-1.792,4-4v-28c0-6.616,5.384-12,12-12h16
			c6.616,0,12,5.384,12,12v28c0,2.208,1.792,4,4,4s4-1.792,4-4v-28C56,244.972,47.028,236,36,236z"/>
	</g>
</g>
<g>
	<g>
		<path d="M492,236h-16c-11.028,0-20,8.972-20,20v28c0,2.208,1.792,4,4,4s4-1.792,4-4v-28c0-6.616,5.384-12,12-12h16
			c6.616,0,12,5.384,12,12v28c0,2.208,1.792,4,4,4s4-1.792,4-4v-28C512,244.972,503.028,236,492,236z"/>
	</g>
</g>
<g>
	<g>
		<path d="M508,280c-2.208,0-4,1.792-4,4v28c0,6.616-5.384,12-12,12H20c-6.616,0-12-5.384-12-12v-28c0-2.208-1.792-4-4-4
			s-4,1.792-4,4v28c0,11.028,8.972,20,20,20h472c11.028,0,20-8.972,20-20v-28C512,281.792,510.208,280,508,280z"/>
	</g>
</g>
<g>
	<g>
		<path d="M256,216c-2.208,0-4,1.792-4,4v48c0,6.616-5.384,12-12,12c-2.208,0-4,1.792-4,4s1.792,4,4,4c11.028,0,20-8.972,20-20v-48
			C260,217.792,258.208,216,256,216z"/>
	</g>
</g>
<g>
	<g>
		<path d="M240,168H40c-11.028,0-20,8.972-20,20v52c0,2.208,1.792,4,4,4s4-1.792,4-4v-52c0-6.616,5.384-12,12-12h200
			c6.616,0,12,5.384,12,12v4c0,2.208,1.792,4,4,4s4-1.792,4-4v-4C260,176.972,251.028,168,240,168z"/>
	</g>
</g>
<g>
	<g>
		<path d="M472,168H272c-11.028,0-20,8.972-20,20c0,2.208,1.792,4,4,4s4-1.792,4-4c0-6.616,5.384-12,12-12h200
			c6.616,0,12,5.384,12,12v52c0,2.208,1.792,4,4,4s4-1.792,4-4v-52C492,176.972,483.028,168,472,168z"/>
	</g>
</g>
<g>
	<g>
		<path d="M272,280c-6.616,0-12-5.384-12-12c0-2.208-1.792-4-4-4s-4,1.792-4,4c0,11.028,8.972,20,20,20c2.208,0,4-1.792,4-4
			S274.208,280,272,280z"/>
	</g>
</g>
<g>
	<g>
		<g>
			<path d="M428,188h-8c-2.208,0-4,1.792-4,4s1.792,4,4,4h8c2.208,0,4-1.792,4-4S430.208,188,428,188z"/>
			<path d="M468,188h-24c-2.208,0-4,1.792-4,4s1.792,4,4,4h20v16c0,2.208,1.792,4,4,4s4-1.792,4-4v-20
				C472,189.792,470.208,188,468,188z"/>
		</g>
	</g>
</g>
<g>
	<g>
		<path d="M48,188h-4c-2.208,0-4,1.792-4,4v20c0,2.208,1.792,4,4,4s4-1.792,4-4v-16c2.208,0,4-1.792,4-4S50.208,188,48,188z"/>
	</g>
</g>
<g>
</g>
<g>
</g>
<g>
</g>
<g>
</g>
<g>
</g>
<g>
</g>
<g>
</g>
<g>
</g>
<g>
</g>
<g>
</g>
<g>
</g>
<g>
</g>
<g>
</g>
<g>
</g>
<g>
</g>
</svg>
